<?xml version="1.0" encoding="UTF-8"?><svg id="_レイヤー_2" xmlns="http://www.w3.org/2000/svg" xmlns:xlink="http://www.w3.org/1999/xlink" viewBox="0 0 33.19 33.62"><defs><style>.cls-1{fill:url(#_名称未設定グラデーション_8);}.cls-1,.cls-2,.cls-3{stroke-width:0px;}.cls-2{fill:#d28559;}.cls-3{fill:#fffefa;}</style><linearGradient id="_名称未設定グラデーション_8" x1="23" y1="31.58" x2="11.94" y2="1.19" gradientUnits="userSpaceOnUse"><stop offset="0" stop-color="#f4b87a"/><stop offset="1" stop-color="#fce3ad"/></linearGradient></defs><g id="_レイヤー_1-2"><path class="cls-1" d="m31.75,8.41c-1.87-3.11-5.91-4.12-9.02-2.25-.44.26-.83.58-1.18.92,0-.49-.04-.99-.16-1.49-.82-3.54-4.35-5.74-7.88-4.93s-5.74,4.35-4.93,7.88c.12.5.3.96.51,1.41-.47-.15-.95-.27-1.46-.31-3.62-.32-6.8,2.36-7.12,5.97-.32,3.62,2.36,6.8,5.97,7.12.51.04,1.01.02,1.5-.05-.29.4-.55.82-.75,1.3-1.42,3.34.14,7.2,3.48,8.62,3.34,1.42,7.2-.14,8.62-3.48.2-.47.33-.95.41-1.44.29.4.61.78,1,1.11,2.74,2.38,6.89,2.09,9.27-.65,2.38-2.74,2.09-6.89-.65-9.27-.39-.34-.81-.61-1.24-.84.47-.15.93-.34,1.37-.61,3.11-1.87,4.12-5.91,2.25-9.02Z"/><path class="cls-2" d="m13.29,33.62c-.94,0-1.87-.19-2.76-.57-3.59-1.52-5.27-5.68-3.75-9.27.07-.18.16-.35.25-.53-.2,0-.39,0-.58-.02-1.88-.16-3.59-1.05-4.8-2.5C.44,19.29-.14,17.46.03,15.58c.16-1.88,1.05-3.59,2.5-4.8,1.45-1.21,3.28-1.79,5.16-1.63.19.02.38.04.58.08-.06-.19-.12-.38-.16-.56-.88-3.8,1.5-7.6,5.3-8.48,3.8-.88,7.6,1.5,8.48,5.3.04.19.08.38.1.57.16-.12.32-.23.48-.32,3.34-2.01,7.7-.92,9.7,2.42h0c2.01,3.34.92,7.7-2.42,9.7-.16.1-.33.19-.51.28.16.12.31.24.46.36,2.94,2.56,3.26,7.03.7,9.98-2.56,2.94-7.03,3.26-9.98.7-.14-.13-.28-.26-.42-.4-.06.19-.13.37-.2.55-.74,1.74-2.11,3.09-3.86,3.79-.86.35-1.75.52-2.65.52Zm-4.2-11.6l-.7.96c-.3.41-.53.8-.69,1.2-1.31,3.08.13,6.65,3.22,7.96,1.49.63,3.14.65,4.65.04,1.5-.61,2.68-1.76,3.31-3.26.17-.39.29-.83.38-1.33l.2-1.16.69.96c.3.41.6.75.92,1.03,2.53,2.2,6.37,1.93,8.57-.6,2.2-2.53,1.93-6.37-.6-8.57-.32-.28-.7-.53-1.15-.77l-1.04-.55,1.12-.36c.48-.16.9-.34,1.26-.56,2.87-1.72,3.8-5.46,2.08-8.33-1.73-2.87-5.46-3.8-8.33-2.08-.37.22-.72.5-1.09.85l-.85.82v-1.18c0-.51-.04-.96-.14-1.38-.75-3.26-4.02-5.3-7.28-4.55-1.58.36-2.92,1.32-3.78,2.7-.86,1.38-1.13,3-.77,4.58.1.42.25.84.47,1.3l.52,1.06-1.12-.37c-.48-.16-.93-.25-1.35-.29-1.62-.14-3.19.36-4.43,1.4-1.24,1.04-2,2.51-2.15,4.12s.35,3.19,1.4,4.43c1.04,1.24,2.51,2,4.12,2.15.43.04.88.02,1.38-.05l1.17-.17Z"/><path class="cls-3" d="m15,1.5h0c2.61,0,4.84,1.78,5.42,4.32.09.38.13.79.13,1.26v2.36s1.7-1.64,1.7-1.64c.34-.33.66-.58,1-.78.87-.52,1.86-.8,2.86-.8,1.98,0,3.77,1.01,4.78,2.7.77,1.28.99,2.77.63,4.22-.36,1.44-1.26,2.66-2.54,3.43-.33.2-.71.37-1.16.51l-2.25.73,2.09,1.11c.41.22.76.45,1.05.71,2.32,2.02,2.57,5.54.55,7.86-1.06,1.22-2.59,1.92-4.21,1.92-1.34,0-2.64-.49-3.65-1.37-.29-.26-.57-.57-.85-.95l-1.39-1.91-.41,2.33c-.08.46-.19.86-.35,1.22-.88,2.06-2.89,3.4-5.13,3.4-.75,0-1.48-.15-2.17-.44-1.37-.58-2.43-1.66-2.99-3.04-.56-1.38-.54-2.89.04-4.26.15-.36.36-.72.64-1.1l1.39-1.91-2.34.33c-.31.04-.59.06-.86.06-.14,0-.27,0-.41-.02-3.06-.27-5.33-2.98-5.07-6.04.25-2.85,2.68-5.09,5.54-5.09.16,0,.33,0,.49.02.39.03.79.12,1.24.27l2.25.73-1.04-2.12c-.21-.42-.35-.81-.44-1.19-.33-1.45-.08-2.94.7-4.21s2.02-2.14,3.47-2.48c.41-.1.84-.14,1.26-.14m0-1c-.49,0-.99.06-1.48.17-3.54.82-5.74,4.35-4.93,7.88.12.5.3.96.51,1.41-.47-.15-.95-.27-1.46-.31-.19-.02-.39-.03-.58-.03-3.37,0-6.24,2.58-6.54,6-.32,3.62,2.36,6.8,5.97,7.12.17.01.33.02.5.02.34,0,.67-.03,1-.07-.29.4-.55.82-.75,1.3-1.42,3.34.14,7.2,3.48,8.62.84.36,1.71.52,2.56.52,2.56,0,4.99-1.5,6.05-4.01.2-.47.33-.95.41-1.44.29.4.61.78,1,1.11,1.24,1.08,2.78,1.61,4.31,1.61,1.84,0,3.66-.77,4.96-2.26,2.38-2.74,2.09-6.89-.65-9.27-.39-.34-.81-.61-1.24-.84.47-.15.93-.34,1.37-.61,3.11-1.87,4.12-5.91,2.25-9.02-1.23-2.05-3.41-3.19-5.64-3.19-1.15,0-2.32.3-3.38.94-.44.26-.83.58-1.18.92,0-.49-.04-.99-.16-1.49-.7-3.04-3.41-5.09-6.4-5.09h0Z"/></g></svg>