<?xml version="1.0" encoding="UTF-8"?><svg id="_レイヤー_2" xmlns="http://www.w3.org/2000/svg" xmlns:xlink="http://www.w3.org/1999/xlink" viewBox="0 0 20.44 20.89"><defs><style>.cls-1{fill:url(#_名称未設定グラデーション_14);}.cls-1,.cls-2,.cls-3{stroke-width:0px;}.cls-2{fill:#f8f3f9;}.cls-3{fill:#a081bd;}</style><linearGradient id="_名称未設定グラデーション_14" x1="-25.81" y1="31.44" x2="-19.18" y2="13.23" gradientTransform="translate(30.33 -14.23) rotate(-5)" gradientUnits="userSpaceOnUse"><stop offset="0" stop-color="#c8a7de"/><stop offset="1" stop-color="#f0e2f1"/></linearGradient></defs><g id="_レイヤー_1-2"><path class="cls-1" d="m19.94,10.16c-.08-2.21-1.93-3.94-4.14-3.86-.31.01-.61.07-.9.14.15-.26.27-.54.36-.84.61-2.12-.62-4.34-2.74-4.95s-4.34.62-4.95,2.74c-.09.3-.13.6-.14.9-.2-.22-.43-.42-.69-.6-1.83-1.24-4.32-.75-5.55,1.08C-.05,6.61.43,9.1,2.26,10.33c.26.17.53.31.81.41-.27.13-.54.28-.78.47-1.74,1.36-2.05,3.87-.69,5.61,1.36,1.74,3.87,2.05,5.61.69.25-.19.46-.41.64-.64.04.3.1.59.2.89.76,2.08,3.05,3.15,5.13,2.39,2.08-.76,3.15-3.05,2.39-5.13-.11-.29-.25-.56-.41-.81.29.06.6.09.91.08,2.21-.08,3.94-1.93,3.86-4.14Z"/><path class="cls-3" d="m11.83,20.89c-1.84,0-3.57-1.14-4.23-2.96,0-.02-.01-.04-.02-.06-.02.01-.03.03-.05.04-1.96,1.53-4.79,1.18-6.32-.78C-.32,15.18.03,12.35,1.99,10.82c.02-.01.03-.03.05-.04-.02-.01-.03-.02-.05-.03-1-.67-1.67-1.69-1.9-2.87-.23-1.18.01-2.38.69-3.38.67-1,1.69-1.67,2.87-1.9,1.18-.23,2.38.02,3.38.69.02.01.03.02.05.04,0-.02.01-.04.02-.06.33-1.16,1.09-2.11,2.14-2.7C10.28-.02,11.5-.16,12.65.18c1.16.33,2.11,1.09,2.7,2.14.58,1.05.72,2.27.39,3.42l-.02.06s.04,0,.06,0c2.49-.08,4.57,1.86,4.65,4.34h0c.09,2.48-1.86,4.57-4.34,4.65-.02,0-.04,0-.06,0,0,.02.02.04.02.06.41,1.13.36,2.35-.15,3.44s-1.41,1.92-2.54,2.33c-.51.18-1.02.27-1.53.27Zm-3.61-5.25l.14,1.17c.04.29.09.55.18.78.66,1.81,2.67,2.75,4.49,2.09.88-.32,1.58-.96,1.98-1.81s.44-1.8.12-2.68c-.08-.23-.2-.46-.36-.71l-.65-.99,1.16.23c.29.06.55.08.79.07,1.93-.07,3.44-1.69,3.38-3.62h0c-.03-.93-.43-1.8-1.11-2.44-.68-.64-1.57-.98-2.51-.94-.25,0-.5.05-.79.13l-1.14.31.57-1.03c.14-.26.24-.5.31-.73.26-.9.15-1.84-.3-2.66-.45-.82-1.2-1.41-2.1-1.67s-1.84-.15-2.66.3c-.82.45-1.41,1.2-1.67,2.1-.07.24-.11.49-.12.79l-.06,1.18-.81-.86c-.2-.22-.4-.39-.6-.52-1.6-1.08-3.78-.66-4.86.94-.52.77-.71,1.71-.53,2.62.18.92.7,1.71,1.48,2.23.2.14.44.26.71.36l1.1.42-1.07.5c-.27.12-.49.26-.68.41-.74.58-1.21,1.4-1.32,2.33-.11.93.14,1.84.72,2.58,1.19,1.52,3.39,1.79,4.91.6.19-.15.38-.34.56-.56l.74-.92Z"/><path class="cls-2" d="m11.41,1.25c.3,0,.6.04.9.13,1.72.49,2.72,2.3,2.23,4.02-.06.22-.16.44-.29.68l-.86,1.55,1.71-.46c.27-.07.5-.11.73-.12h.12c1.76,0,3.18,1.38,3.25,3.13.03.87-.28,1.7-.87,2.33s-1.4,1-2.26,1.03h-.09c-.2,0-.41-.02-.65-.07l-1.74-.34.97,1.49c.15.23.26.45.34.66.3.82.26,1.7-.11,2.49-.37.79-1.02,1.38-1.83,1.68-.36.13-.73.2-1.11.2-1.36,0-2.59-.86-3.05-2.14-.08-.21-.13-.45-.16-.72l-.21-1.76-1.11,1.38c-.17.21-.34.39-.52.52-.58.45-1.27.69-2,.69-1.01,0-1.94-.46-2.56-1.25-1.1-1.41-.85-3.46.56-4.56.18-.14.39-.26.64-.38l1.61-.75-1.66-.63c-.26-.1-.47-.21-.66-.33-1.49-1-1.88-3.03-.88-4.51.61-.9,1.61-1.43,2.7-1.43.65,0,1.27.19,1.81.56.19.13.37.29.56.49l1.21,1.3.09-1.77c.01-.27.05-.51.11-.73.4-1.39,1.68-2.36,3.12-2.36h0m0-.75c-1.74,0-3.34,1.14-3.84,2.9-.09.3-.13.6-.14.9-.2-.22-.43-.42-.69-.6-.69-.46-1.46-.68-2.23-.68-1.29,0-2.55.62-3.32,1.76C-.05,6.61.43,9.1,2.26,10.33c.26.17.53.31.81.41-.27.13-.54.28-.78.47-1.74,1.36-2.05,3.87-.69,5.61.79,1.01,1.97,1.54,3.15,1.54.86,0,1.73-.28,2.46-.85.25-.19.46-.41.64-.64.04.3.1.59.2.89.59,1.62,2.13,2.63,3.76,2.63.45,0,.92-.08,1.37-.24,2.08-.76,3.15-3.05,2.39-5.13-.11-.29-.25-.56-.41-.81.26.05.52.08.79.08.04,0,.08,0,.12,0,2.21-.08,3.94-1.93,3.86-4.14-.08-2.16-1.85-3.86-4-3.86-.05,0-.09,0-.14,0-.31.01-.61.07-.9.14.15-.26.27-.54.36-.84.61-2.12-.62-4.34-2.74-4.95-.37-.11-.74-.16-1.1-.16h0Z"/></g></svg>