<?xml version="1.0" encoding="UTF-8"?><svg id="_レイヤー_2" xmlns="http://www.w3.org/2000/svg" viewBox="0 0 70 70"><defs><style>.cls-1{fill:#da9ef7;stroke-width:0px;}</style></defs><g id="_レイヤー_1-2"><path class="cls-1" d="m37.5,0c0,1.38-1.12,2.5-2.5,2.5S32.5,1.38,32.5,0h5Z"/><path class="cls-1" d="m32.5,70c0-1.38,1.12-2.5,2.5-2.5s2.5,1.12,2.5,2.5h-5Z"/><path class="cls-1" d="m35,1.06l33.94,33.94-33.94,33.94L1.06,35,35,1.06m0-1.06L0,35l35,35,35-35L35,0h0Z"/><path class="cls-1" d="m70,37.5c-1.38,0-2.5-1.12-2.5-2.5s1.12-2.5,2.5-2.5v5Z"/><path class="cls-1" d="m0,32.5c1.38,0,2.5,1.12,2.5,2.5S1.38,37.5,0,37.5v-5Z"/></g></svg>