<?xml version="1.0" encoding="UTF-8"?><svg id="_レイヤー_2" xmlns="http://www.w3.org/2000/svg" viewBox="0 0 75 100"><defs><style>.cls-1{fill:#fff;stroke-width:0px;}</style></defs><g id="_レイヤー_1-2"><path class="cls-1" d="m23,29s0,0,0,0c-.72,17.31-6.15,24.1-20,25h0c13.85.9,19.28,7.69,20,25,0,0,0,0,0,0,.72-17.31,6.15-24.1,20-25t0,0c-13.85-.9-19.28-7.69-20-25Z"/><path class="cls-1" d="m55,75s0,0,0,0c-.36,8.66-3.07,12.05-10,12.5h0c6.93.45,9.64,3.84,10,12.5,0,0,0,0,0,0,.36-8.66,3.07-12.05,10-12.5t0,0c-6.93-.45-9.64-3.84-10-12.5Z"/><path class="cls-1" d="m45,0s0,0,0,0c-.18,4.33-1.54,6.02-5,6.25h0c3.46.23,4.82,1.92,5,6.25,0,0,0,0,0,0,.18-4.33,1.54-6.02,5-6.25t0,0C46.54,6.02,45.18,4.33,45,0Z"/><circle class="cls-1" cx="2.5" cy="20" r="2.5"/><circle class="cls-1" cx="72.5" cy="45" r="2.5"/></g></svg>