<?xml version="1.0" encoding="UTF-8"?><svg id="_レイヤー_2" xmlns="http://www.w3.org/2000/svg" xmlns:xlink="http://www.w3.org/1999/xlink" viewBox="0 0 64.64 37.32"><defs><style>.cls-1{fill:url(#_名称未設定グラデーション_8);}.cls-1,.cls-2{stroke-width:0px;}.cls-2{fill:#28345c;}</style><linearGradient id="_名称未設定グラデーション_8" x1="58.87" y1="2.08" x2="51.98" y2="-16.84" gradientTransform="translate(-23.66 52.32) rotate(-30)" gradientUnits="userSpaceOnUse"><stop offset="0" stop-color="#f4b87a"/><stop offset="1" stop-color="#fce3ad"/></linearGradient></defs><g id="_レイヤー_1-2"><polygon class="cls-2" points="0 25.77 0 37.32 64.64 0 44.64 0 0 25.77"/><path class="cls-1" d="m24.73,8.28c-6.81,3.93-5.4,10.56-5.4,10.56,0,0-5.04-4.53-11.85-.6,2.92,6.01,7.59,6.17,9.67,5.89-.31,1.49-.14,3.43,1.39,5.69,2.78-1.61,3.69-3.83,3.95-5.48,1.56.6,3.94.92,6.73-.68-1.2-2.46-2.79-3.58-4.23-4.05,1.28-1.67,3.48-5.79-.26-11.32Z"/><path class="cls-2" d="m18.4,30.49l-.26-.39c-1.23-1.82-1.76-3.64-1.57-5.42-2.32.13-6.73-.46-9.53-6.23l-.2-.42.4-.23c5.32-3.07,9.66-1.15,11.5,0-.07-2.16.44-6.88,5.76-9.95l.4-.23.26.39c3.59,5.31,1.91,9.43.63,11.37,1.63.72,2.94,2.09,3.9,4.07l.2.42-.4.23c-2.66,1.53-4.98,1.4-6.6.91-.39,1.65-1.43,3.72-4.08,5.26l-.4.23Zm-.61-6.95l-.14.69c-.33,1.58.03,3.23,1.06,4.91,2.32-1.5,3.08-3.46,3.31-4.88l.1-.61.58.22c1.34.51,3.42.84,5.88-.42-.94-1.73-2.19-2.87-3.72-3.37l-.67-.22.43-.56c1.35-1.76,3.1-5.41-.02-10.34-5.94,3.71-4.81,9.53-4.76,9.78l.31,1.48-1.13-1.01c-.19-.17-4.67-4.06-10.85-.77,2.71,5.17,6.75,5.48,8.95,5.19l.7-.09Z"/></g></svg>