<?xml version="1.0" encoding="UTF-8"?><svg id="b" xmlns="http://www.w3.org/2000/svg" viewBox="0 0 80 80"><defs><style>.d{fill:none;}.e{fill:#e8ddd9;}</style></defs><g id="c"><path class="e" d="m67.99,21.05c-.18-.71-.21-1.45-.12-2.2.5-4.22,4.66-8.96,6.59-12.24-.81,4.47-1.62,12.69-6.47,14.45ZM0,78.15s.81-.78,2.03-1.41c.23-5.75,5.58-11.53,9.58-15.61-.28.84-2.39,7.55-3.08,9.64,1.44-.81,2.94-1.3,4.65-1.64.04-6.72,11.14-13.37,15.05-16.43-.53,1.22-4.6,8.35-6.21,10.55.88-.33,1.96-.62,3.16-.75.2-5.64,8.76-9.7,12.77-13.08-.7,1.82-1.97,4.45-3.1,6.29.87-.39,1.96-.75,3.29-1.02.33-5.94,6.68-10.78,9.46-15.9-.04,2.86-.72,6.92-1.93,9.84.5-.32,1.19-.71,1.84-.97-.36-5.76,6.57-10.15,9.54-14.35.07-.14-.53,4.56-1.07,6.03,3.31-3.26,9.18-5.75,13.18-8.22-2.83,4.74-8.33,13.33-14.69,12.18-.57,1.21-1.5,2.39-2.44,3.15,3.39-.56,7.94-1.12,11.08-1.66-4.83,3.35-12.67,9.03-18.54,6.14-.85,1.48-2,2.63-2.98,3.34,3.93-.27,9.39-.38,13.08-.72-5.86,3.04-15.54,7.64-21.59,4.83-1.15,1.66-3.04,3.34-4.56,4.02,3.36.06,7.76.64,10.75,1.08-5.64,1.67-14.57,5.68-20,3.3-.74.76-1.45,1.37-2.12,1.85,2.32-.19,5.58-.1,7.66.09-4.07,1.26-12.8,6.09-17.94,6.19-.09.17-.19.34-.28.5,5.58-.59,12.16,1.63,17.18,3.69-3.44.06-13.67,1.06-18.2.88-1.65-.04-4.83-.89-5.55-1.83,0,0,0,0,0,0ZM64.15,29.29c-.14.53-.37,1.06-.6,1.49-.47,1.18-2.33,3.11-3.16,3.27-.37-.97-.44-2.01-.32-3.09.47-4.01,3.73-8.59,5.1-12.05.09,1.82,0,4.68-.27,6.79,2.9-2.42,7.23-4.22,10.49-6.02-2.6,3.41-6.92,9.03-11.24,9.6Z"/><rect class="d" width="80" height="80"/></g></svg>