<?xml version="1.0" encoding="UTF-8"?><svg id="b" xmlns="http://www.w3.org/2000/svg" viewBox="0 0 101 51"><defs><style>.d{fill:none;stroke:#b08f63;stroke-miterlimit:10;}</style></defs><g id="c"><path class="d" d="m5.38,12.69c3.11,0,10.12,2.81,10.12,2.81,0,0-7.02,2.81-10.12,2.81s-4.88-1.26-4.88-2.81,1.77-2.81,4.88-2.81Z"/><path class="d" d="m25.62,12.69c-3.11,0-10.12,2.81-10.12,2.81,0,0,7.02,2.81,10.12,2.81s4.88-1.26,4.88-2.81-1.77-2.81-4.88-2.81Z"/><path class="d" d="m12.69,25.62c0-3.11,2.81-10.12,2.81-10.12,0,0,2.81,7.02,2.81,10.12s-1.26,4.88-2.81,4.88-2.81-1.77-2.81-4.88Z"/><path class="d" d="m12.69,5.38c0,3.11,2.81,10.12,2.81,10.12,0,0,2.81-7.02,2.81-10.12s-1.26-4.88-2.81-4.88-2.81,1.77-2.81,4.88Z"/><path class="d" d="m8.99,12.7c1.43,1.43,6.51,2.8,6.51,2.8,0,0-1.37-5.08-2.8-6.51s-3.07-1.41-4.1-.38-1.04,2.67.38,4.1Z"/><path class="d" d="m18.3,22.01c-1.43-1.43-2.8-6.51-2.8-6.51,0,0,5.08,1.37,6.51,2.8s1.41,3.07.38,4.1-2.67,1.04-4.1-.38Z"/><path class="d" d="m12.7,22.01c1.43-1.43,2.8-6.51,2.8-6.51,0,0-5.08,1.37-6.51,2.8s-1.41,3.07-.38,4.1,2.67,1.04,4.1-.38Z"/><path class="d" d="m22.01,12.7c-1.43,1.43-6.51,2.8-6.51,2.8,0,0,1.37-5.08,2.8-6.51s3.07-1.41,4.1-.38,1.04,2.67-.38,4.1Z"/><path class="d" d="m79.56,18.16c2.59,0,8.44,2.34,8.44,2.34,0,0-5.85,2.34-8.44,2.34s-4.06-1.05-4.06-2.34,1.47-2.34,4.06-2.34Z"/><path class="d" d="m96.44,18.16c-2.59,0-8.44,2.34-8.44,2.34,0,0,5.85,2.34,8.44,2.34s4.06-1.05,4.06-2.34-1.47-2.34-4.06-2.34Z"/><path class="d" d="m85.66,28.94c0-2.59,2.34-8.44,2.34-8.44,0,0,2.34,5.85,2.34,8.44s-1.05,4.06-2.34,4.06-2.34-1.47-2.34-4.06Z"/><path class="d" d="m85.66,12.06c0,2.59,2.34,8.44,2.34,8.44,0,0,2.34-5.85,2.34-8.44s-1.05-4.06-2.34-4.06-2.34,1.47-2.34,4.06Z"/><path class="d" d="m82.58,18.17c1.19,1.19,5.42,2.33,5.42,2.33,0,0-1.14-4.23-2.33-5.42s-2.56-1.17-3.41-.32-.87,2.22.32,3.41Z"/><path class="d" d="m90.33,25.92c-1.19-1.19-2.33-5.42-2.33-5.42,0,0,4.23,1.14,5.42,2.33s1.17,2.56.32,3.41-2.22.87-3.41-.32Z"/><path class="d" d="m85.67,25.92c1.19-1.19,2.33-5.42,2.33-5.42,0,0-4.23,1.14-5.42,2.33s-1.17,2.56-.32,3.41,2.22.87,3.41-.32Z"/><path class="d" d="m93.42,18.17c-1.19,1.19-5.42,2.33-5.42,2.33,0,0,1.14-4.23,2.33-5.42s2.56-1.17,3.41-.32.87,2.22-.32,3.41Z"/><path class="d" d="m43.75,38.62c2.07,0,6.75,1.88,6.75,1.88,0,0-4.68,1.88-6.75,1.88s-3.25-.84-3.25-1.88,1.18-1.88,3.25-1.88Z"/><path class="d" d="m57.25,38.62c-2.07,0-6.75,1.88-6.75,1.88,0,0,4.68,1.88,6.75,1.88s3.25-.84,3.25-1.88-1.18-1.88-3.25-1.88Z"/><path class="d" d="m48.62,47.25c0-2.07,1.88-6.75,1.88-6.75,0,0,1.88,4.68,1.88,6.75s-.84,3.25-1.88,3.25-1.88-1.18-1.88-3.25Z"/><path class="d" d="m48.62,33.75c0,2.07,1.88,6.75,1.88,6.75,0,0,1.88-4.68,1.88-6.75s-.84-3.25-1.88-3.25-1.88,1.18-1.88,3.25Z"/><path class="d" d="m46.16,38.64c.95.95,4.34,1.86,4.34,1.86,0,0-.91-3.39-1.86-4.34s-2.05-.94-2.73-.26-.7,1.78.26,2.73Z"/><path class="d" d="m52.36,44.84c-.95-.95-1.86-4.34-1.86-4.34,0,0,3.39.91,4.34,1.86s.94,2.05.26,2.73-1.78.7-2.73-.26Z"/><path class="d" d="m48.64,44.84c.95-.95,1.86-4.34,1.86-4.34,0,0-3.39.91-4.34,1.86s-.94,2.05-.26,2.73,1.78.7,2.73-.26Z"/><path class="d" d="m54.84,38.64c-.95.95-4.34,1.86-4.34,1.86,0,0,.91-3.39,1.86-4.34s2.05-.94,2.73-.26.7,1.78-.26,2.73Z"/></g></svg>