<?xml version="1.0" encoding="UTF-8"?><svg id="b" xmlns="http://www.w3.org/2000/svg" viewBox="0 0 55 55"><defs><style>.d{fill:none;}.e{fill:#e8ddd9;}</style></defs><g id="c"><path class="e" d="m9.76,30.8c-.29.85-.69,1.85-1.54,2.97-.57.78-1.43,1.64-2.26,2.47-.4.4-.79.79-1.14,1.16-1.14,1.15-2.07,2.01-2.07,2.01l-1.65,1.53.85-2.08s.54-1.33,1.27-2.92c.74-1.58,1.84-3.45,2.73-4.66.71-.98,1.54-1.67,2.45-2.05.62-.26,1.03-.24,1.14-.23l.45.04v.45c.02.05.02.55-.21,1.31Zm-1.99,4.33l-.31-.22-.29.24s-.42.35-.86,1c-.53.77-.92,1.86-1.12,3.09-.19,1.37-.21,3.14-.05,4.61.13,1.43.3,2.51.3,2.55l.31,1.99.66-1.9s.44-1.26.89-2.8c.39-1.14,1.08-3.26,1.3-4.78.16-1.21.1-2.17-.18-2.87-.25-.61-.58-.87-.65-.91ZM50.15,0c-.29.68-.93,1.58-2.34,2.53l-.41.29c-.58.4-1.23.86-1.95,1.29-.36.23-.75.44-1.14.66-.53.3-1.04.58-1.5.9-1.66,1.07-3.04,1.86-3.05,1.87l-1.59.91.91-1.6s.67-1.17,1.67-2.6l.31-.43c.43-.6.92-1.28,1.49-1.83.53-.55,1.04-1.03,1.53-1.44-.07.04-.14.07-.21.11-.57.28-1.18.52-1.81.71l-.19.06c-.38.12-.78.25-1.23.36l.09.21c.02.05.21.54.05,1.32-.18.92-.79,1.91-1.8,2.94-.48.55-1.18,1.23-2.05,2l-1.2,1.03-1.11,1.05c-.74.68-1.41,1.28-1.9,1.7-.23.19-.41.35-.52.48l-1.48,1.48.42-1.74s.09-.36.28-.9c.2-.52.48-1.24.84-2.04.4-.9.85-1.79,1.28-2.58.24-.39.49-.76.75-1.11-.27.17-.57.34-.89.5-.51.3-1.07.58-1.67.82h0c.03.06.29.53.24,1.36-.03.46-.14.95-.34,1.46-.1.28-.25.57-.42.89-.16.33-.36.69-.58,1.05-.42.68-1.04,1.51-1.82,2.48-.37.45-.73.94-1.08,1.42-.31.43-.62.85-.93,1.24-.22.29-.44.57-.65.83-.38.49-.72.91-.95,1.27l-1.86,2.64.45-3.02c.11-.69.25-1.52.51-2.38.42-1.48.88-2.99,1.47-4.25-.13.18-.29.38-.48.6-.89,1.01-1.98,1.8-3.25,2.37-.15.07-.3.15-.46.22l.05.03s.48.35.73,1.08c.22.62.36,1.68-.2,3.25-.53,1.3-1.46,3.42-2.38,5.14-.34.61-.62,1.2-.85,1.69l-.21.45-1.17,2.39-.22-1.65c0-.05-.17-1.27-.22-2.9,0-1.26.09-2.52.28-3.62-.06.13-.12.27-.19.41-.46.94-1.28,1.95-2.29,2.84-.35.3-.77.6-1.22.89l.19.17c.07.06.41.39.61,1.12.24.83.19,1.92-.16,3.34-.18.71-.49,1.59-.91,2.64l-.58,1.4-.53,1.38c-.7,1.78-1.34,3.19-1.34,3.21l-.8,1.78-.16-1.94c0-.05-.11-1.33-.12-3.03,0-.96.02-1.92.07-2.78.1-.99.26-1.91.46-2.66.39-1.45,1-2.68,1.71-3.47.18-.2.34-.37.49-.51-.47.28-.96.54-1.42.8l-.68.38c-1.39.79-2.56,1.37-2.57,1.38l-1.6.8,1.51-2.38.29-.44c.3-.47.68-1.05,1.13-1.64,1.35-1.71,2.75-3.41,3.94-4.33,1.49-1.11,2.61-1.27,3.29-1.21.61.05.95.28,1.01.32l.17.12s.02-.08.04-.12c.2-.71.52-1.38.96-2,.32-.47.7-.91,1.11-1.31.22-.21.42-.38.6-.53-.99.37-2.18.75-3.56,1.13l-4.89,1.44,2.22-2.2c.49-.51,1.22-1.12,2.13-1.86.99-.8,1.89-1.5,2.68-2.07.96-.62,1.9-1.16,2.68-1.51,1.11-.49,2.08-.71,2.88-.64.21.02.39.05.56.1.75.21,1.07.59,1.13.66l.13.17c.06-.1.13-.2.19-.29.82-1.24,1.72-2.22,2.57-2.82-.32.08-.65.17-.98.26-.9.25-1.93.52-3.16.8l-.91.21c-.63.14-1.19.27-1.6.39l-3.31.88,2.82-2.27c.51-.39,1.17-.83,1.94-1.33l.67-.44c2.1-1.47,4.8-2.7,6.47-3.31.36-.11.71-.2,1.04-.27-1.54.1-2.63.23-2.64.23l-2.5.3,3.34-1.88c.79-.38,1.89-.86,2.96-1.31h16.86Zm-11.65,2.16c-.62.06-1.29.11-1.98.16-.66.07-1.38.14-2.19.2.26.03.51.07.75.13.83.22,1.17.6,1.23.67l.06.08c.2-.16.4-.32.61-.47.56-.36,1.08-.59,1.53-.77ZM0,52.11l.68-1.14c.48-.8,1.01-1.69,1.49-2.55l.2-.34c.44-.75.86-1.46,1.17-2.11.62-1.25.98-2.44,1.08-3.53.1-.83.01-1.3,0-1.35l-.11-.54-.53.16s-.48.15-1.12.69c-.52.47-1.29,1.36-2.06,2.96-.25.52-.52,1.16-.81,1.92v5.83Z"/><rect class="d" width="55" height="55"/></g></svg>