<?xml version="1.0" encoding="UTF-8"?><svg id="b" xmlns="http://www.w3.org/2000/svg" viewBox="0 0 51 51"><defs><style>.d{fill:#b08f63;stroke:#614930;stroke-miterlimit:10;}</style></defs><g id="c"><path class="d" d="m32.57,25.5c1.56-.47,3.12-1.19,4.23-2.3,2.77-2.77,3-7.04.52-9.52-1.24-1.24-2.95-1.85-4.8-1.7-1.74.13-3.42.93-4.72,2.23-1.11,1.11-1.83,2.66-2.3,4.23-.47-1.56-1.19-3.12-2.3-4.23-1.3-1.3-2.98-2.09-4.72-2.23-1.85-.14-3.56.46-4.8,1.7-2.48,2.48-2.25,6.75.52,9.52,1.11,1.11,2.66,1.83,4.23,2.3-1.56.47-3.12,1.19-4.23,2.3-2.77,2.77-3,7.04-.52,9.52,1.12,1.12,2.62,1.72,4.27,1.72.18,0,.35,0,.53-.02,1.74-.13,3.42-.93,4.72-2.23,1.11-1.11,1.83-2.66,2.3-4.23.47,1.56,1.19,3.12,2.3,4.23,1.3,1.3,2.98,2.09,4.72,2.23.18.01.35.02.53.02,1.65,0,3.15-.6,4.27-1.72,2.48-2.48,2.25-6.75-.52-9.52-1.11-1.11-2.66-1.83-4.23-2.3Zm-2.05-8.58c.65-.65,1.47-1.05,2.3-1.11.08,0,.15,0,.22,0,.62,0,1.17.21,1.56.6.96.96.72,2.83-.52,4.08-1.07,1.07-3.43,1.66-5.47,1.91.25-2.03.84-4.4,1.91-5.47Zm-14.12-.52c.39-.39.94-.6,1.56-.6.07,0,.15,0,.22,0,.83.06,1.64.46,2.3,1.11,1.07,1.07,1.66,3.43,1.91,5.47-2.03-.25-4.4-.84-5.47-1.91-1.25-1.25-1.49-3.12-.52-4.08Zm4.08,17.68c-.65.65-1.47,1.05-2.3,1.11-.72.05-1.35-.15-1.78-.59-.96-.96-.72-2.83.52-4.08,1.07-1.07,3.43-1.66,5.47-1.91-.25,2.03-.84,4.4-1.91,5.47Zm14.12.52c-.43.43-1.07.64-1.78.59-.83-.06-1.64-.46-2.3-1.11-1.07-1.07-1.66-3.43-1.91-5.47,2.03.25,4.4.84,5.47,1.91,1.25,1.25,1.49,3.12.52,4.08Z"/><path class="d" d="m41.85,33.19c-2.38,0-5.14-1.09-8.19-3.24-2.16-1.52-3.68-3.03-3.75-3.09l-1.37-1.36,1.37-1.36c.06-.06,1.59-1.57,3.75-3.09,3.05-2.15,5.8-3.24,8.19-3.24,4.77,0,8.65,3.45,8.65,7.69s-3.88,7.69-8.65,7.69Zm-7.69-7.69c2.03,1.68,5.23,3.85,7.69,3.85,2.65,0,4.81-1.73,4.81-3.85s-2.16-3.85-4.81-3.85c-2.47,0-5.66,2.17-7.69,3.85Zm-25,7.69c-4.77,0-8.65-3.45-8.65-7.69s3.88-7.69,8.65-7.69c2.38,0,5.14,1.09,8.19,3.24,2.16,1.52,3.68,3.03,3.75,3.09l1.37,1.36-1.37,1.36c-.06.06-1.59,1.57-3.75,3.09-3.05,2.15-5.8,3.24-8.19,3.24Zm0-11.54c-2.65,0-4.81,1.73-4.81,3.85s2.16,3.85,4.81,3.85c2.47,0,5.66-2.17,7.69-3.85-2.03-1.68-5.23-3.85-7.69-3.85Zm16.35.8l-1.36-1.37c-.06-.06-1.57-1.59-3.09-3.75-2.15-3.05-3.24-5.8-3.24-8.19,0-4.77,3.45-8.65,7.69-8.65s7.69,3.88,7.69,8.65c0,2.38-1.09,5.14-3.24,8.19-1.52,2.16-3.03,3.68-3.09,3.75l-1.36,1.37Zm0-18.11c-2.12,0-3.85,2.16-3.85,4.81,0,2.47,2.17,5.66,3.85,7.7,1.68-2.04,3.85-5.23,3.85-7.7,0-2.65-1.73-4.81-3.85-4.81Zm0,46.15c-4.24,0-7.69-3.88-7.69-8.65,0-2.38,1.09-5.14,3.24-8.19,1.52-2.16,3.03-3.68,3.09-3.75l1.36-1.37,1.36,1.37c.06.06,1.57,1.59,3.09,3.75,2.15,3.05,3.24,5.8,3.24,8.19,0,4.77-3.45,8.65-7.69,8.65Zm0-16.35c-1.68,2.04-3.85,5.23-3.85,7.7,0,2.65,1.73,4.81,3.85,4.81s3.85-2.16,3.85-4.81c0-2.47-2.17-5.66-3.85-7.7Z"/><rect class="d" x="26.3" y="18.14" width="3.85" height="3.85" transform="translate(22.45 -14.08) rotate(45)"/><rect class="d" x="20.86" y="29.02" width="3.85" height="3.85" transform="translate(28.55 -7.05) rotate(45)"/><rect class="d" x="23.58" y="26.3" width="3.85" height="3.85" transform="translate(27.42 -9.77) rotate(45)"/><rect class="d" x="26.3" y="23.58" width="3.85" height="3.85" transform="translate(26.3 -12.49) rotate(45)"/><rect class="d" x="23.58" y="20.86" width="3.85" height="3.85" transform="translate(23.58 -11.36) rotate(45)"/><rect class="d" x="20.86" y="23.58" width="3.85" height="3.85" transform="translate(24.7 -8.64) rotate(45)"/><rect class="d" x="18.14" y="20.86" width="3.85" height="3.85" transform="translate(21.98 -7.51) rotate(45)"/><rect class="d" x="29.02" y="26.3" width="3.85" height="3.85" transform="translate(29.02 -13.61) rotate(45)"/><path class="d" d="m34.34,23.3h0c1.06,0,1.92.86,1.92,1.92v3.85h-3.85v-3.85c0-1.06.86-1.92,1.92-1.92Z" transform="translate(77.13 20.41) rotate(135)"/><path class="d" d="m28.9,28.73h0c1.06,0,1.92.86,1.92,1.92v3.85h-3.85v-3.85c0-1.06.86-1.92,1.92-1.92Z" transform="translate(71.69 33.54) rotate(135)"/><path class="d" d="m26.18,13.78h0c1.06,0,1.92.86,1.92,1.92v3.85h-3.85v-3.85c0-1.06.86-1.92,1.92-1.92Z" transform="translate(19.45 -13.63) rotate(45)"/><path class="d" d="m31.62,19.22h0c1.06,0,1.92.86,1.92,1.92v3.85h-3.85v-3.85c0-1.06.86-1.92,1.92-1.92Z" transform="translate(24.89 -15.89) rotate(45)"/><path class="d" d="m24.82,31.45h0c1.06,0,1.92.86,1.92,1.92v3.85h-3.85v-3.85c0-1.06.86-1.92,1.92-1.92Z" transform="translate(18.09 76.17) rotate(-135)"/><path class="d" d="m19.38,26.01h0c1.06,0,1.92.86,1.92,1.92v3.85h-3.85v-3.85c0-1.06.86-1.92,1.92-1.92Z" transform="translate(12.65 63.04) rotate(-135)"/><path class="d" d="m14.74,21.94h3.85v3.85c0,1.06-.86,1.92-1.92,1.92h0c-1.06,0-1.92-.86-1.92-1.92v-3.85h0Z" transform="translate(45.99 30.59) rotate(135)"/><path class="d" d="m20.18,16.5h3.85v3.85c0,1.06-.86,1.92-1.92,1.92h0c-1.06,0-1.92-.86-1.92-1.92v-3.85h0Z" transform="translate(51.43 17.46) rotate(135)"/></g></svg>