<?xml version="1.0" encoding="UTF-8"?><svg xmlns="http://www.w3.org/2000/svg" viewBox="0 0 40.75 40.75"><defs><style>.cls-1{mix-blend-mode:screen;}.cls-1,.cls-2{opacity:.5;stroke-width:0px;}.cls-1,.cls-2,.cls-3{fill:#ffbf80;}.cls-4{stroke-linecap:round;}.cls-4,.cls-5{stroke-linejoin:round;}.cls-4,.cls-5,.cls-6{fill:none;}.cls-4,.cls-5,.cls-6,.cls-3{stroke:#6b5a63;stroke-width:.75px;}.cls-6,.cls-3{stroke-miterlimit:10;}.cls-2{mix-blend-mode:multiply;}.cls-7{isolation:isolate;}</style></defs><g class="cls-7"><g id="_レイヤー_2"><g id="_レイヤー_1-2"><circle class="cls-3" cx="20.38" cy="20.38" r="20"/><path class="cls-2" d="M20.38,20.38h17.14c-12.8,5.64-11.5,4.35-17.14,17.14v-17.14ZM14.49,26.26l5.89-5.89H3.23c6.4,2.82,9.27,3.91,11.26,5.89ZM20.38,3.23v17.14s5.89-5.89,5.89-5.89c-1.98-1.98-3.07-4.86-5.89-11.26Z"/><path class="cls-1" d="M20.38,3.23c-5.64,12.8-4.35,11.5-17.14,17.14h17.14V3.23Z"/><circle class="cls-6" cx="20.38" cy="20.38" r="17.14"/><path class="cls-5" d="M20.38,37.52c-5.64-12.8-4.35-11.5-17.14-17.14,12.8-5.64,11.5-4.35,17.14-17.14,5.64,12.8,4.35,11.5,17.14,17.14-12.8,5.64-11.5,4.35-17.14,17.14Z"/><line class="cls-4" x1="32.16" y1="20.38" x2="23.59" y2="20.38"/><line class="cls-4" x1="8.59" y1="20.37" x2="17.16" y2="20.38"/><line class="cls-4" x1="20.38" y1="32.16" x2="20.38" y2="23.59"/><line class="cls-4" x1="20.38" y1="8.59" x2="20.38" y2="17.16"/></g></g></g></svg>