<?xml version="1.0" encoding="UTF-8"?><svg xmlns="http://www.w3.org/2000/svg" viewBox="0 0 17.52 38.55"><defs><style>.cls-1{fill:none;}.cls-1,.cls-2{stroke:#6b5a63;stroke-miterlimit:10;stroke-width:1.5px;}.cls-3{mix-blend-mode:multiply;opacity:.3;}.cls-3,.cls-2,.cls-4{fill:#ffbf80;}.cls-3,.cls-5,.cls-4{stroke-width:0px;}.cls-6{isolation:isolate;}.cls-5{fill:#ffe5cc;}</style></defs><g class="cls-6"><g id="_レイヤー_2"><g id="_レイヤー_1-2"><path class="cls-4" d="M8.76,35.39c-1.56-6.4-4.26-12.9-7.5-16.26,3.27-1.57,5.95-4.7,7.5-8.74,1.55,4.04,4.23,7.17,7.5,8.74-3.24,3.36-5.94,9.86-7.5,16.26Z"/><path class="cls-5" d="M8.76,10.39c-1.55,4.04-4.23,7.17-7.5,8.74h7.5v-8.74Z"/><path class="cls-3" d="M8.76,19.13v16.26c1.56-6.4,4.26-12.9,7.5-16.26h-7.5Z"/><path class="cls-1" d="M8.76,35.39c-1.56-6.4-4.26-12.9-7.5-16.26,3.27-1.57,5.95-4.7,7.5-8.74,1.55,4.04,4.23,7.17,7.5,8.74-3.24,3.36-5.94,9.86-7.5,16.26Z"/><circle class="cls-2" cx="8.76" cy="3.25" r="2.5"/></g></g></g></svg>