<?xml version="1.0" encoding="UTF-8"?><svg id="_レイヤー_2" xmlns="http://www.w3.org/2000/svg" viewBox="0 0 182 182"><defs><style>.cls-1{stroke-linecap:round;}.cls-1,.cls-2{fill:none;stroke:#fff;stroke-linejoin:round;}.cls-2{stroke-width:2px;}</style></defs><g id="_レイヤー_1-2"><path class="cls-2" d="M46,181c-14.8-33.59-11.41-30.2-45-45,33.59-14.8,30.2-11.41,45-45,14.8,33.59,11.41,30.2,45,45-33.59,14.8-30.2,11.41-45,45Z"/><line class="cls-1" x1="76.94" y1="136" x2="54.44" y2="136"/><line class="cls-1" x1="15.06" y1="136" x2="37.56" y2="136"/><line class="cls-1" x1="46" y1="166.94" x2="46" y2="144.44"/><line class="cls-1" x1="46" y1="105.06" x2="46" y2="127.56"/><path class="cls-2" d="M136,158.5c7.4-16.79,5.71-15.1,22.5-22.5-16.79-7.4-15.1-5.71-22.5-22.5-7.4,16.79-5.71,15.1-22.5,22.5,16.79,7.4,15.1,5.71,22.5,22.5Z"/><path class="cls-2" d="M136,91c-14.8-33.59-11.41-30.2-45-45,33.59-14.8,30.2-11.41,45-45,14.8,33.59,11.41,30.2,45,45-33.59,14.8-30.2,11.41-45,45Z"/><line class="cls-1" x1="166.94" y1="46" x2="144.44" y2="46"/><line class="cls-1" x1="105.06" y1="46" x2="127.56" y2="46"/><line class="cls-1" x1="136" y1="76.94" x2="136" y2="54.44"/><line class="cls-1" x1="136" y1="15.06" x2="136" y2="37.56"/><path class="cls-2" d="M46,68.5c7.4-16.79,5.71-15.1,22.5-22.5-16.79-7.4-15.1-5.71-22.5-22.5-7.4,16.79-5.71,15.1-22.5,22.5,16.79,7.4,15.1,5.71,22.5,22.5Z"/></g></svg>