<?xml version="1.0" encoding="UTF-8"?><svg id="_レイヤー_2" xmlns="http://www.w3.org/2000/svg" viewBox="0 0 166 52"><defs><style>.cls-1,.cls-2,.cls-3{stroke:#6b5a63;}.cls-1,.cls-2,.cls-3,.cls-4{stroke-linejoin:round;stroke-width:2px;}.cls-1,.cls-5{fill:#f38370;}.cls-2{fill:#ca5249;}.cls-3,.cls-4{fill:none;}.cls-4{stroke:#ffe5cc;}.cls-5{stroke-width:0px;}</style></defs><g id="_レイヤー_1-2"><path class="cls-5" d="M83,8.83s43.88,48.65,58.1,41.44c4.24-2.15,2.76-6.18,2.76-6.18,0,0,7.22,4.83,21.14-6.11,0,0-13.25-3.46-71.63-32.54l-10.37,3.39Z"/><path class="cls-4" d="M123.29,45.16c12.91-.58,9.46-9.67,9.46-9.67,0,0,8.45,2.59,14.57-4.49"/><path class="cls-4" d="M127.96,47.91c12.91-.58,9.58-8.9,9.58-8.9,0,0,9.29,2.85,15.44-5.59"/><path class="cls-3" d="M83,8.83s43.88,48.65,58.1,41.44c4.24-2.15,2.76-6.18,2.76-6.18,0,0,7.22,4.83,21.14-6.11,0,0-13.25-3.46-71.63-32.54l-10.37,3.39Z"/><path class="cls-5" d="M83,8.83S39.12,57.48,24.9,50.27c-4.24-2.15-2.76-6.18-2.76-6.18,0,0-7.22,4.83-21.14-6.11,0,0,13.25-3.46,71.63-32.54l10.37,3.39Z"/><path class="cls-4" d="M42.71,45.16c-12.91-.58-9.46-9.67-9.46-9.67,0,0-8.45,2.59-14.57-4.49"/><path class="cls-4" d="M38.04,47.91c-12.91-.58-9.58-8.9-9.58-8.9,0,0-9.29,2.85-15.44-5.59"/><path class="cls-3" d="M83,8.83S39.12,57.48,24.9,50.27c-4.24-2.15-2.76-6.18-2.76-6.18,0,0-7.22,4.83-21.14-6.11,0,0,13.25-3.46,71.63-32.54l10.37,3.39Z"/><path class="cls-1" d="M83,2.38l50.39,3.41s-.59,15.09-4.47,17.7c-2.23,1.5-28.55,1.25-45.92-13.17V2.38Z"/><path class="cls-2" d="M83,2.74c10.21-2.19,49.43-3.36,50.39,3.04-.77,5.34-46.41-.94-50.39-2.68,0,0-.09-.34,0-.36Z"/><path class="cls-1" d="M83,2.38l-50.39,3.41s.59,15.09,4.47,17.7c2.23,1.5,28.55,1.25,45.92-13.17V2.38Z"/><path class="cls-2" d="M83,2.74c-10.21-2.19-49.43-3.36-50.39,3.04.77,5.34,46.41-.94,50.39-2.68,0,0,.09-.34,0-.36Z"/><path class="cls-1" d="M79.22,13.79c0,.76,1.69,1.38,3.77,1.38s3.77-.62,3.77-1.38V2.72c0-.76-1.69-1.38-3.77-1.38s-3.77.62-3.77,1.38v11.07Z"/></g></svg>