<?xml version="1.0" encoding="UTF-8"?><svg id="_レイヤー_2" xmlns="http://www.w3.org/2000/svg" viewBox="0 0 31.43 40.81"><defs><style>.cls-1{fill:#f7e4bc;stroke-width:0px;}</style></defs><g id="_レイヤー_1-2"><path class="cls-1" d="M3.53,13.79c-.02-.1-1.88,5.81,1.05,11.21.47.86.4-1.59,1.4-3.42-.04-.08-1.21,5.15,1.95,8.52.42.44-.04-1.61.43-3.24-.07-.05.38,5.09,3.32,6.93.3.19-.25-1.32,0-3.52-.04,0,.97,3.61,2.51,5.14,3.05,3.54,12.39,6.99,17.24,4.64-.07-.05-2.27-5.49-5.49-9.24-2.09-2.39-4.42-4-8.36-5.88,0,0,.89.06,2.3.43.23-.03-1.02-2.17-6.21-4.38,0,0,1.03-.17,2.3.11.68.11-1.59-2.38-5.76-4.12,0,0,.73-.36,1.24-.31.47.12-3.53-3.23-5.82-4.1,0,0,1.37-1.14,2.39-1.64.46-.17-2.62-1.89-3.82.87.13.05-2.19-3.14-.96-11.17,0,0-.59-1.12-1.21-.36-.03-.1-1.41,6.45,1.52,12.15.04.04-1.98.09-3.55,4.34,0,0,1.39.38,2.05-.34.68-.76,1.47-2.63,1.48-2.62Z"/></g></svg>